<?xml version="1.0" standalone="no"?>
<!DOCTYPE svg PUBLIC "-//W3C//DTD SVG 20010904//EN"
 "http://www.w3.org/TR/2001/REC-SVG-20010904/DTD/svg10.dtd">
<svg version="1.0" xmlns="http://www.w3.org/2000/svg"
 width="559.000000pt" height="897.000000pt" viewBox="0 0 559.000000 897.000000"
 preserveAspectRatio="xMidYMid meet">

<g transform="translate(0.000000,897.000000) scale(0.100000,-0.100000)"
fill="#000000" stroke="none">
<path d="M2785 7173 c-423 -26 -955 -153 -1294 -307 -298 -135 -528 -329 -593
-499 -85 -224 -82 -724 7 -1006 47 -148 120 -223 233 -237 45 -5 63 -3 87 11
98 56 377 196 382 192 3 -3 -16 -113 -41 -244 -117 -593 -247 -1099 -377
-1460 l-40 -112 16 -168 c42 -430 114 -700 207 -778 91 -77 212 -74 296 8 117
112 305 539 413 935 20 75 25 83 43 78 140 -37 144 -37 301 -15 537 74 940
202 1300 414 276 162 588 460 763 728 237 362 365 917 307 1326 -46 326 -146
556 -319 739 -200 211 -547 339 -1045 387 -138 13 -494 18 -646 8z m725 -198
c438 -58 722 -177 880 -368 62 -75 152 -253 180 -358 79 -293 78 -569 -4 -889
-95 -368 -224 -596 -491 -865 -241 -243 -459 -390 -763 -514 -279 -114 -500
-171 -869 -225 -159 -24 -190 -23 -253 2 -38 15 -129 100 -160 150 l-28 45
-22 -99 c-69 -313 -164 -622 -254 -826 -57 -128 -164 -317 -188 -332 -23 -14
-47 0 -71 42 -41 69 -100 373 -126 647 l-9 90 64 196 c124 385 228 790 324
1267 53 264 130 685 125 690 -7 8 -312 -131 -493 -224 l-203 -104 -23 23 c-31
31 -62 118 -84 230 -13 73 -17 145 -16 352 0 236 2 267 22 339 25 89 47 124
141 214 279 270 913 481 1606 536 124 9 595 -3 715 -19z"/>
<path d="M3245 6025 c-265 -34 -587 -112 -872 -211 l-133 -46 0 -77 c0 -143
-76 -797 -135 -1160 -14 -85 -24 -155 -23 -156 5 -4 190 45 308 81 262 81 729
285 998 435 314 176 504 313 673 486 122 125 183 206 230 306 47 101 47 117 2
153 -104 82 -218 133 -378 169 -106 24 -145 28 -340 31 -150 2 -255 -1 -330
-11z m520 -176 c106 -13 236 -49 306 -85 l50 -25 -22 -38 c-61 -109 -250 -294
-435 -427 -289 -207 -879 -499 -1272 -629 -46 -15 -85 -25 -87 -24 -1 2 1 28
6 58 17 107 69 540 90 746 11 116 24 213 27 217 11 10 255 84 387 117 146 36
364 78 465 90 111 13 382 13 485 0z"/>
</g>
</svg>
